<?xml version="1.0" standalone="no"?>
<!DOCTYPE svg PUBLIC "-//W3C//DTD SVG 20010904//EN"
 "http://www.w3.org/TR/2001/REC-SVG-20010904/DTD/svg10.dtd">
<svg version="1.0" xmlns="http://www.w3.org/2000/svg"
 width="1022.000000pt" height="612.000000pt" viewBox="0 0 1022.000000 612.000000"
 preserveAspectRatio="xMidYMid meet">

<g transform="translate(0.000000,612.000000) scale(0.100000,-0.100000)"
fill="#000000" stroke="none">
<path d="M2843 4807 l-353 -622 1310 -3 c721 -1 1900 -1 2620 0 l1310 3 -352
622 -353 622 -1915 0 -1915 1 -352 -623z"/>
<path d="M2366 3853 c51 -213 217 -380 429 -432 71 -18 214 -16 282 4 201 59
348 204 407 403 l15 52 -570 0 -569 0 6 -27z"/>
<path d="M3823 3843 c13 -77 76 -184 156 -263 121 -120 238 -170 401 -171 47
0 108 5 135 11 158 36 310 158 383 310 22 47 44 100 47 118 l7 32 -568 0 -567
0 6 -37z"/>
<path d="M5276 3853 c63 -263 292 -444 561 -444 132 -1 221 28 340 108 94 64
203 227 220 327 l6 36 -567 0 -566 0 6 -27z"/>
<path d="M6733 3843 c9 -53 67 -170 116 -230 59 -75 167 -148 265 -179 103
-33 240 -37 331 -10 158 47 293 161 363 306 22 47 44 100 47 118 l7 32 -568 0
-567 0 6 -37z"/>
<path d="M3626 3452 c-38 -55 -139 -150 -211 -199 -124 -83 -282 -136 -447
-148 l-88 -7 0 -1204 0 -1204 265 0 265 0 0 843 c0 725 2 851 15 902 48 181
196 327 376 370 92 21 586 21 678 0 179 -43 333 -197 375 -375 13 -56 16 -187
16 -902 l0 -838 1235 0 1235 0 0 1204 0 1204 -77 7 c-185 15 -318 58 -458 147
-56 35 -175 148 -210 198 l-29 41 -24 -33 c-40 -52 -153 -161 -205 -197 -227
-155 -507 -196 -769 -111 -160 51 -311 157 -419 293 l-38 47 -45 -59 c-202
-262 -576 -384 -911 -296 -176 47 -368 177 -476 324 l-25 33 -28 -40z m2878
-647 c117 -31 213 -113 268 -230 l33 -70 0 -415 0 -415 -33 -70 c-44 -93 -114
-164 -206 -207 l-71 -33 -515 0 -515 0 -68 32 c-127 60 -217 181 -237 319 -12
89 -13 658 0 747 24 163 142 299 300 343 72 20 966 19 1044 -1z"/>
<path d="M5508 2503 c-52 -33 -53 -39 -53 -413 0 -286 3 -352 15 -374 29 -56
30 -56 521 -56 l451 0 34 34 35 35 -3 366 -3 367 -33 29 -32 29 -453 0 c-404
-1 -455 -2 -479 -17z"/>
<path d="M3835 2501 c-22 -10 -52 -31 -67 -47 -60 -65 -58 -26 -58 -934 l0
-830 430 0 430 0 0 833 c0 788 -1 834 -19 872 -10 22 -31 52 -47 67 -58 55
-80 58 -366 58 -235 0 -267 -2 -303 -19z"/>
</g>
</svg>
