<?xml version="1.0" standalone="no"?>
<!DOCTYPE svg PUBLIC "-//W3C//DTD SVG 20010904//EN"
 "http://www.w3.org/TR/2001/REC-SVG-20010904/DTD/svg10.dtd">
<svg version="1.0" xmlns="http://www.w3.org/2000/svg"
 width="1022.000000pt" height="612.000000pt" viewBox="0 0 1022.000000 612.000000"
 preserveAspectRatio="xMidYMid meet">

<g transform="translate(0.000000,612.000000) scale(0.100000,-0.100000)"
fill="#000000" stroke="none">
<path d="M7332 5599 c-299 -35 -592 -202 -771 -439 -102 -136 -160 -254 -201
-410 -57 -219 -50 -428 20 -640 159 -475 591 -790 1084 -790 235 0 437 60 632
186 230 150 410 401 480 669 32 123 43 328 24 457 -73 505 -494 911 -1003 967
-108 12 -159 12 -265 0z m201 -518 c60 -39 62 -47 65 -278 l3 -213 201 0 c234
0 254 -5 288 -75 18 -37 20 -50 11 -82 -12 -44 -42 -76 -84 -92 -17 -7 -109
-11 -223 -11 l-194 0 0 -187 c0 -104 -5 -204 -10 -224 -28 -99 -149 -123 -219
-44 l-31 36 0 209 0 210 -187 0 c-104 0 -204 5 -224 10 -109 30 -132 172 -36
230 29 18 51 20 240 20 l207 0 0 205 c0 229 5 250 63 285 40 25 94 25 130 1z"/>
<path d="M3186 5408 c-8 -13 -166 -291 -351 -618 -186 -327 -339 -598 -342
-602 -2 -5 807 -8 1798 -8 l1801 0 -6 23 c-20 74 -29 263 -17 380 31 321 124
539 347 815 l27 32 -1621 0 -1622 0 -14 -22z"/>
<path d="M2374 3832 c50 -189 187 -332 380 -397 58 -20 95 -25 168 -25 172 0
286 47 409 170 80 79 143 186 156 263 l6 37 -566 0 -565 0 12 -48z"/>
<path d="M3820 3865 c0 -28 48 -144 80 -194 44 -70 151 -165 225 -202 88 -43
157 -59 262 -59 165 0 315 66 424 188 50 57 111 165 123 217 4 17 9 38 12 48
5 16 -26 17 -560 17 -489 0 -566 -2 -566 -15z"/>
<path d="M5281 3840 c24 -106 104 -232 191 -301 112 -88 229 -129 368 -129
102 0 181 19 264 63 59 31 178 133 197 168 7 15 -2 38 -45 110 -30 50 -58 99
-61 110 -6 18 -22 19 -465 19 l-458 0 9 -40z"/>
<path d="M3625 3448 c-53 -71 -182 -183 -267 -232 -109 -61 -216 -94 -360
-108 l-118 -12 0 -1203 0 -1203 265 0 265 0 0 848 c0 674 3 857 14 897 48 180
191 323 371 370 47 12 121 15 345 15 224 0 298 -3 345 -15 178 -47 323 -192
370 -370 13 -51 15 -177 15 -902 l0 -843 1235 0 1235 0 0 1184 0 1184 -27 6
c-16 3 -57 10 -93 16 -210 32 -423 128 -618 277 l-83 64 -84 -79 c-191 -179
-439 -262 -692 -232 -233 28 -411 122 -565 299 -32 36 -62 66 -67 66 -4 0 -30
-26 -56 -59 -97 -119 -261 -227 -418 -275 -228 -70 -501 -35 -709 90 -70 42
-198 159 -249 226 l-24 32 -30 -41z m2947 -666 c84 -43 155 -114 199 -200 l34
-67 3 -398 c2 -346 1 -406 -14 -455 -33 -117 -112 -210 -223 -265 l-66 -32
-520 0 -520 0 -67 32 c-120 56 -207 165 -233 291 -18 81 -21 707 -5 793 28
150 133 268 285 321 46 16 95 18 555 15 l505 -2 67 -33z"/>
<path d="M5494 2486 l-34 -34 0 -363 c1 -386 0 -377 50 -412 22 -15 66 -17
468 -17 486 0 486 0 517 60 13 24 15 85 15 370 0 285 -2 346 -15 370 -31 60
-31 60 -521 60 l-446 0 -34 -34z"/>
<path d="M3852 2509 c-47 -14 -118 -86 -131 -134 -7 -28 -11 -296 -11 -862 l0
-823 430 0 430 0 0 833 c0 783 -2 834 -19 872 -23 51 -79 101 -128 114 -47 13
-525 13 -571 0z"/>
</g>
</svg>
