<?xml version="1.0" encoding="utf-8"?>
<!-- Generator: Adobe Illustrator 16.0.0, SVG Export Plug-In . SVG Version: 6.00 Build 0)  -->
<!DOCTYPE svg PUBLIC "-//W3C//DTD SVG 1.1//EN" "http://www.w3.org/Graphics/SVG/1.1/DTD/svg11.dtd">
<svg version="1.1" id="Layer_1" xmlns="http://www.w3.org/2000/svg" xmlns:xlink="http://www.w3.org/1999/xlink" x="0px" y="0px"
	 width="512px" height="512px" viewBox="0 0 512 512" enable-background="new 0 0 512 512" xml:space="preserve">
<path fill="#0A7EB7" d="M356.516,62.684c-55.514-55.512-145.517-55.512-201.031,0c-48.717,48.724-54.678,124.012-17.881,179.234
	C142.738,249.615,256,412.486,256,412.486s113.26-162.863,118.389-170.558C411.193,186.708,405.242,111.412,356.516,62.684z
	 M255.998,261.869c-54.488,0-98.666-44.182-98.666-98.668c0-54.5,44.17-98.669,98.666-98.669c54.495,0,98.672,44.169,98.672,98.669
	C354.67,217.688,310.492,261.869,255.998,261.869z"/>
<g>
	<path fill="#0A7EB7" d="M307.822,173.232c0,37.635-17.535,56.454-52.609,56.454c-34.023,0-51.035-18.381-51.035-55.143v-72.359
		h28.315v72.708c0,20.274,7.922,30.411,23.768,30.411c15.557,0,23.334-9.788,23.334-29.362v-73.758h28.227V173.232z"/>
</g>
<rect fill="none" width="512" height="512"/>
<g>
	<path fill="#0071BC" d="M176.088,465.865c0,17.883-8.333,26.824-24.997,26.824c-16.167,0-24.25-8.733-24.25-26.201v-34.382h13.454
		v34.548c0,9.633,3.764,14.45,11.294,14.45c7.392,0,11.087-4.651,11.087-13.952v-35.046h13.412V465.865z"/>
	<path fill="#0071BC" d="M230.857,443.027h-16.983v48.624h-13.453v-48.624h-16.9v-10.921h47.337V443.027z"/>
	<path fill="#0071BC" d="M292.438,491.651H278.9l-24.541-37.413c-1.44-2.186-2.436-3.834-2.99-4.941h-0.166
		c0.221,2.104,0.332,5.315,0.332,9.634v32.721h-12.665v-59.545h14.45l23.627,36.25c1.079,1.634,2.076,3.253,2.989,4.858h0.166
		c-0.222-1.384-0.332-4.111-0.332-8.18v-32.929h12.665V491.651z"/>
	<path fill="#0071BC" d="M342.971,474.129h-27.737c0.442,6.173,4.332,9.26,11.668,9.26c4.678,0,8.789-1.107,12.333-3.322v9.467
		c-3.932,2.104-9.039,3.156-15.322,3.156c-6.866,0-12.194-1.902-15.987-5.709c-3.792-3.807-5.688-9.115-5.688-15.925
		c0-7.06,2.049-12.65,6.146-16.775c4.097-4.124,9.136-6.187,15.115-6.187c6.2,0,10.996,1.841,14.388,5.521
		c3.391,3.683,5.086,8.68,5.086,14.99V474.129z M330.805,466.072c0-6.09-2.464-9.135-7.392-9.135c-2.104,0-3.924,0.872-5.46,2.616
		s-2.471,3.917-2.803,6.519H330.805z"/>
	<path fill="#0071BC" d="M388.979,474.129h-27.737c0.442,6.173,4.332,9.26,11.668,9.26c4.678,0,8.788-1.107,12.332-3.322v9.467
		c-3.931,2.104-9.038,3.156-15.322,3.156c-6.865,0-12.194-1.902-15.986-5.709c-3.793-3.807-5.688-9.115-5.688-15.925
		c0-7.06,2.048-12.65,6.146-16.775c4.097-4.124,9.135-6.187,15.114-6.187c6.2,0,10.997,1.841,14.388,5.521
		c3.391,3.683,5.087,8.68,5.087,14.99V474.129z M376.813,466.072c0-6.09-2.465-9.135-7.392-9.135c-2.104,0-3.924,0.872-5.46,2.616
		c-1.537,1.744-2.471,3.917-2.804,6.519H376.813z"/>
</g>
</svg>
